<svg width="24" height="24" viewBox="0 0 24 24" fill="none" xmlns="http://www.w3.org/2000/svg">
<path d="M13.1597 1C8.70804 1 4.16736 4.01304 3.27703 8.57826C2.74283 11.3174 3.4551 13.8739 1.22927 13.8739C0.249909 13.8739 -0.373321 15.0609 0.249909 15.8826C1.49637 17.6174 3.188 18.6217 4.87962 19.2609L5.42807 19.4855C5.39645 19.8029 5.43009 20.1236 5.5268 20.4269C5.62351 20.7302 5.78115 21.0093 5.98954 21.2462C6.19794 21.4832 6.45246 21.6727 6.73668 21.8025C7.0209 21.9323 7.3285 21.9996 7.63965 22C8.152 21.9991 8.64835 21.8169 9.04493 21.4842C9.44151 21.1515 9.71403 20.6887 9.8165 20.1739H13.474C13.5765 20.689 13.8493 21.1521 14.2462 21.4848C14.6432 21.8175 15.1399 21.9995 15.6526 22C16.0053 21.9999 16.3529 21.9139 16.6668 21.749C16.9807 21.5841 17.2519 21.3451 17.4581 21.0517C17.6642 20.7582 17.7994 20.4187 17.8525 20.0612C17.9057 19.7036 17.8752 19.3383 17.7636 18.9952C21.4941 17.0504 23.5668 13.1782 22.8643 9.0357C22.3301 4.37826 17.8784 1 13.1597 1ZM13.1597 2.82609C17.1662 2.82609 20.7275 5.65652 21.3507 9.4913C21.8849 12.7783 20.1933 15.9739 17.0771 17.5261L16.6729 17.6913C16.3577 17.5236 16.0078 17.4356 15.6526 17.4348C15.3074 17.4351 14.9669 17.5177 14.6582 17.6762C14.3494 17.8346 14.0809 18.0646 13.8737 18.3478H9.77644C9.66782 18.3478 9.52714 18.3332 9.4025 18.3287C9.19505 18.0511 8.92821 17.8262 8.62256 17.6712C8.3169 17.5163 7.98062 17.4354 7.63965 17.4348C7.2071 17.4356 6.78417 17.5657 6.42256 17.8091L6.39318 17.8L5.59189 17.5261C4.34543 17.0696 3.27703 16.4304 2.3867 15.5174C4.52349 14.8783 4.70156 12.3217 4.79059 10.8609C4.87962 10.2217 4.87962 9.58261 4.96866 8.94348C5.76995 5.1087 9.6874 2.82609 13.1597 2.82609ZM10.3106 7.3913C9.95644 7.3913 9.61675 7.5356 9.3663 7.79244C9.11584 8.04928 8.97514 8.39764 8.97514 8.76087C8.97514 9.1241 9.11584 9.47246 9.3663 9.7293C9.61675 9.98614 9.95644 10.1304 10.3106 10.1304C10.6648 10.1304 11.0045 9.98614 11.255 9.7293C11.5054 9.47246 11.6461 9.1241 11.6461 8.76087C11.6461 8.39764 11.5054 8.04928 11.255 7.79244C11.0045 7.5356 10.6648 7.3913 10.3106 7.3913ZM15.6526 7.3913C15.2984 7.3913 14.9587 7.5356 14.7083 7.79244C14.4578 8.04928 14.3171 8.39764 14.3171 8.76087C14.3171 9.1241 14.4578 9.47246 14.7083 9.7293C14.9587 9.98614 15.2984 10.1304 15.6526 10.1304C16.0068 10.1304 16.3465 9.98614 16.5969 9.7293C16.8474 9.47246 16.9881 9.1241 16.9881 8.76087C16.9881 8.39764 16.8474 8.04928 16.5969 7.79244C16.3465 7.5356 16.0068 7.3913 15.6526 7.3913ZM9.51379 11.0243C9.45233 11.0156 9.38974 11.0222 9.33127 11.0435C9.06417 11.1348 8.88611 11.3174 8.97514 11.5913C9.42031 13.6913 11.379 14.6957 12.9816 14.6957C14.5842 14.6957 16.5429 13.6913 16.9881 11.5913C16.9881 11.3174 16.8991 11.1348 16.632 11.0435C16.3649 11.0435 16.1868 11.1348 16.0978 11.4087C15.7416 13.0522 14.2281 13.7826 12.9816 13.7826C11.7352 13.7826 10.2216 13.0522 9.86547 11.4087C9.7987 11.2033 9.68117 11.0499 9.51379 11.0243Z" fill="white"/>
</svg>
