<svg width="24" height="24" viewBox="0 0 24 24" fill="none" xmlns="http://www.w3.org/2000/svg">
<path d="M19.794 4.20106C18.7804 3.18238 17.5732 2.3747 16.2426 1.82512C14.9121 1.27554 13.4849 0.995072 12.0442 1.00007C6.00804 1.00007 1.08844 5.89505 1.08844 11.901C1.08844 13.826 1.59698 15.696 2.54774 17.346L1 23L6.80402 21.482C8.40703 22.351 10.209 22.813 12.0442 22.813C18.0804 22.813 23 17.918 23 11.912C23 8.99704 21.8613 6.25805 19.794 4.20106ZM12.0442 20.965C10.408 20.965 8.80502 20.525 7.401 19.7L7.06935 19.502L3.6201 20.404L4.53769 17.06L4.31658 16.719C3.40756 15.2747 2.92488 13.6052 2.92362 11.901C2.92362 6.90705 7.01407 2.83706 12.0332 2.83706C14.4653 2.83706 16.7538 3.78306 18.4673 5.49905C19.3158 6.33941 19.9882 7.33898 20.4456 8.43981C20.9029 9.54065 21.1361 10.7209 21.1317 11.912C21.1538 16.906 17.0633 20.965 12.0442 20.965ZM17.0412 14.189C16.7648 14.057 15.4161 13.397 15.1729 13.298C14.9186 13.21 14.7417 13.166 14.5538 13.43C14.3658 13.705 13.8462 14.321 13.6915 14.497C13.5367 14.684 13.3709 14.706 13.0945 14.563C12.8181 14.431 11.9337 14.134 10.8945 13.21C10.0764 12.484 9.53467 11.593 9.36884 11.318C9.21407 11.043 9.34673 10.9 9.49045 10.757C9.61206 10.636 9.76683 10.438 9.8995 10.284C10.0322 10.13 10.0874 10.009 10.1759 9.83304C10.2643 9.64604 10.2201 9.49204 10.1538 9.36004C10.0874 9.22804 9.53467 7.88605 9.31357 7.33605C9.09246 6.80805 8.8603 6.87405 8.69447 6.86305H8.16382C7.97588 6.86305 7.68844 6.92905 7.43417 7.20405C7.19095 7.47905 6.48342 8.13904 6.48342 9.48104C6.48342 10.823 7.46734 12.121 7.6 12.297C7.73266 12.484 9.53467 15.234 12.2764 16.411C12.9286 16.697 13.4372 16.862 13.8352 16.983C14.4874 17.192 15.0844 17.159 15.5598 17.093C16.0905 17.016 17.1849 16.433 17.406 15.795C17.6382 15.157 17.6382 14.618 17.5608 14.497C17.4834 14.376 17.3176 14.321 17.0412 14.189Z" fill="white"/>
</svg>
