<svg width="24" height="24" viewBox="0 0 24 24" fill="none" xmlns="http://www.w3.org/2000/svg">
<path d="M13.275 3C9.52497 3 5.69997 5.475 4.94997 9.225C4.49997 11.475 5.09997 13.575 3.22497 13.575C2.39997 13.575 1.87497 14.55 2.39997 15.225C3.44997 16.65 4.87497 17.475 6.29997 18L6.76197 18.1845C6.73534 18.4452 6.76368 18.7087 6.84514 18.9578C6.92661 19.2069 7.0594 19.4362 7.23495 19.6308C7.4105 19.8254 7.6249 19.9811 7.86433 20.0878C8.10375 20.1944 8.36287 20.2497 8.62497 20.25C9.05657 20.2492 9.47469 20.0996 9.80876 19.8263C10.1428 19.553 10.3724 19.1729 10.4587 18.75H13.5397C13.6261 19.1731 13.8559 19.5535 14.1903 19.8268C14.5246 20.1001 14.9431 20.2496 15.375 20.25C15.6721 20.2499 15.9649 20.1793 16.2293 20.0438C16.4937 19.9084 16.7222 19.7121 16.8959 19.471C17.0695 19.23 17.1834 18.9511 17.2282 18.6574C17.2729 18.3637 17.2472 18.0636 17.1532 17.7817C20.2957 16.1842 22.0417 13.0035 21.45 9.60075C21 5.775 17.25 3 13.275 3ZM13.275 4.5C16.65 4.5 19.65 6.825 20.175 9.975C20.625 12.675 19.2 15.3 16.575 16.575L16.2345 16.7108C15.9689 16.5729 15.6742 16.5007 15.375 16.5C15.0841 16.5002 14.7974 16.5681 14.5373 16.6983C14.2772 16.8285 14.051 17.0173 13.8765 17.25H10.425C10.3335 17.25 10.215 17.238 10.11 17.2343C9.93522 17.0063 9.71044 16.8215 9.45296 16.6942C9.19549 16.5669 8.9122 16.5005 8.62497 16.5C8.2606 16.5007 7.90434 16.6076 7.59972 16.8075L7.57497 16.8L6.89997 16.575C5.84997 16.2 4.94997 15.675 4.19997 14.925C5.99997 14.4 6.14997 12.3 6.22497 11.1C6.29997 10.575 6.29997 10.05 6.37497 9.525C7.04997 6.375 10.35 4.5 13.275 4.5ZM10.875 8.25C10.5766 8.25 10.2905 8.36853 10.0795 8.5795C9.8685 8.79048 9.74997 9.07663 9.74997 9.375C9.74997 9.67337 9.8685 9.95952 10.0795 10.1705C10.2905 10.3815 10.5766 10.5 10.875 10.5C11.1733 10.5 11.4595 10.3815 11.6705 10.1705C11.8814 9.95952 12 9.67337 12 9.375C12 9.07663 11.8814 8.79048 11.6705 8.5795C11.4595 8.36853 11.1733 8.25 10.875 8.25ZM15.375 8.25C15.0766 8.25 14.7905 8.36853 14.5795 8.5795C14.3685 8.79048 14.25 9.07663 14.25 9.375C14.25 9.67337 14.3685 9.95952 14.5795 10.1705C14.7905 10.3815 15.0766 10.5 15.375 10.5C15.6733 10.5 15.9595 10.3815 16.1705 10.1705C16.3814 9.95952 16.5 9.67337 16.5 9.375C16.5 9.07663 16.3814 8.79048 16.1705 8.5795C15.9595 8.36853 15.6733 8.25 15.375 8.25ZM10.2037 11.2343C10.152 11.2271 10.0992 11.2325 10.05 11.25C9.82497 11.325 9.67497 11.475 9.74997 11.7C10.125 13.425 11.775 14.25 13.125 14.25C14.475 14.25 16.125 13.425 16.5 11.7C16.5 11.475 16.425 11.325 16.2 11.25C15.975 11.25 15.825 11.325 15.75 11.55C15.45 12.9 14.175 13.5 13.125 13.5C12.075 13.5 10.8 12.9 10.5 11.55C10.4437 11.3812 10.3447 11.2553 10.2037 11.2343Z" fill="#0B0320"/>
</svg>
